#!OML:ASF X:\für Bonn\!DataBase\2005_08_11_Bastian_Final\c3d\Bastian.ASF
:FULLY-SPECIFIED
:DEGREES
207
root 1.58773 16.5298 -5.6595 536.673 38.4591 -175.429
lowerback 22.3844 -7.26682 2.91499
upperback 17.5637 -5.64009 3.91188
thorax 7.24614 -1.4534 3.7171
lowerneck -20.3788 -13.1621 -21.2639
upperneck -3.24381 -14.3401 34.4988
head 7.45529 -4.99005 13.6787
rclavicle -1.82882e-014 -1.90833e-014
rhumerus -26.9066 10.8492 -82.3616
rradius 31.7501
rwrist 1.26388
rhand -11.6665 4.66563
rfingers 7.12502
rthumb 14.3784 -24.8164
lclavicle -1.82882e-014 -1.90833e-014
lhumerus 3.40661 -23.4472 -268.737
lradius 35.2797
lwrist -352.855
lhand -14.9649 -10.3948
lfingers 7.12502
lthumb 11.1986 19.2864
rfemur -37.1605 -5.77543 21.2598
rtibia 54.7652
rfoot 1.22354 1.22801
rtoes -13.8377
lfemur 24.6323 -2.94324 -11.8807
ltibia 25.6741
lfoot -16.3557 -16.5165
ltoes -21.4718
208
root 1.70575 16.5336 -5.7306 536.87 38.3732 -175.471
lowerback 22.4604 -7.31853 3.07277
upperback 17.5277 -5.66439 4.03912
thorax 7.16729 -1.45582 3.78025
lowerneck -20.5013 -13.133 -21.189
upperneck -3.34828 -14.2426 34.3583
head 7.38663 -4.94013 13.6185
rclavicle 1.9799e-013 -6.79844e-014
rhumerus -26.8254 10.7958 -82.1982
rradius 32.0658
rwrist 1.1303
rhand -11.9084 4.62582
rfingers 7.12502
rthumb 14.1453 -24.8726
lclavicle 1.9799e-013 -6.79844e-014
lhumerus 3.23727 -23.5541 -268.664
lradius 34.9437
lwrist -352.986
lhand -14.9631 -10.2007
lfingers 7.12502
lthumb 11.2003 19.4803
rfemur -37.1446 -6.12158 21.4459
rtibia 55.224
rfoot 0.495484 1.42238
rtoes -13.5073
lfemur 24.3203 -2.9778 -11.7488
ltibia 26.4979
lfoot -15.9748 -16.333
ltoes -23.0842
209
root 1.82466 16.5412 -5.80076 537.087 38.2889 -175.485
lowerback 22.5584 -7.37026 3.25096
upperback 17.479 -5.68344 4.17546
thorax 7.06142 -1.45474 3.84292
lowerneck -20.6169 -13.1025 -21.1104
upperneck -3.43018 -14.1509 34.1875
head 7.32017 -4.89499 13.5438
rclavicle 4.33351e-014 -4.05521e-014
rhumerus -26.754 10.6626 -82.0194
rradius 32.3972
rwrist 1.11775
rhand -12.1003 4.60109
rfingers 7.12502
rthumb 13.9604 -24.9102
lclavicle 4.33351e-014 -4.05521e-014
lhumerus 3.02201 -23.6011 -268.563
lradius 34.6
lwrist -353.149
lhand -14.9458 -10.0322
lfingers 7.12502
lthumb 11.217 19.6479
rfemur -37.0779 -6.47248 21.6643
rtibia 55.5938
rfoot -0.223257 1.62407
rtoes -13.3171
lfemur 23.884 -2.89998 -11.5491
ltibia 27.4923
lfoot -15.4579 -16.1592
ltoes -25.1039
210
root 1.94287 16.5514 -5.87061 537.29 38.2112 -175.497
lowerback 22.6921 -7.428 3.43125
upperback 17.4125 -5.70827 4.30462
thorax 6.91618 -1.45731 3.89979
lowerneck -20.7064 -13.0501 -21.0232
upperneck -3.50018 -14.0363 33.9987
head 7.24321 -4.84225 13.4662
rclavicle -1.02573e-013 1.11319e-014
rhumerus -26.7397 10.6239 -81.8568
rradius 32.798
rwrist 1.066
rhand -12.2343 4.51995
rfingers 7.12502
rthumb 13.8312 -25.0002
lclavicle -1.02573e-013 1.11319e-014
lhumerus 2.81483 -23.6506 -268.473
lradius 34.1172
lwrist -353.333
lhand -14.947 -9.92929
lfingers 7.12502
lthumb 11.2158 19.7509
rfemur -36.9423 -6.80662 21.8742
rtibia 55.8739
rfoot -0.927043 1.82317
rtoes -12.9582
lfemur 23.3673 -2.79758 -11.363
ltibia 28.6377
lfoot -14.6277 -15.8358
ltoes -26.7611
211
root 2.06164 16.5647 -5.94001 537.481 38.1261 -175.536
lowerback 22.8274 -7.49327 3.61907
upperback 17.3347 -5.74404 4.4046
thorax 6.75258 -1.4645 3.92223
lowerneck -20.8063 -13.016 -20.9542
upperneck -3.53913 -13.9558 33.8499
head 7.19548 -4.80208 13.4033
rclavicle 4.45278e-014 5.24792e-014
rhumerus -26.7284 10.5123 -81.7334
rradius 33.1819
rwrist 1.08457
rhand -12.3557 4.44413
rfingers 7.12502
rthumb 13.7142 -25.084
lclavicle 4.45278e-014 5.24792e-014
lhumerus 2.67156 -23.6907 -268.409
lradius 33.4202
lwrist -353.524
lhand -15.0331 -9.86729
lfingers 7.12502
lthumb 11.1329 19.8174
rfemur -36.7698 -7.12595 22.063
rtibia 56.0769
rfoot -1.62563 1.95799
rtoes -12.6386
lfemur 22.7483 -2.69338 -11.1934
ltibia 29.9209
lfoot -13.5535 -15.488
ltoes -27.7393
212
root 2.17942 16.582 -6.0088 537.717 38.0633 -175.515
lowerback 22.9817 -7.55197 3.85499
upperback 17.2426 -5.76226 4.5017
thorax 6.5563 -1.45931 3.91351
lowerneck -20.9025 -12.9653 -20.802
upperneck -3.56801 -13.8694 33.6468
head 7.13358 -4.76127 13.3018
rclavicle 5.64548e-014 -2.06736e-014
rhumerus -26.7232 10.3911 -81.6394
rradius 33.57
rwrist 1.10492
rhand -12.4055 4.39162
rfingers 7.12502
rthumb 13.6662 -25.1397
lclavicle 5.64548e-014 -2.06736e-014
lhumerus 2.47558 -23.8307 -268.389
lradius 32.7295
lwrist -353.607
lhand -15.1425 -9.87845
lfingers 7.12502
lthumb 11.0273 19.8119
rfemur -36.5618 -7.42072 22.3045
rtibia 56.1954
rfoot -2.26139 2.07262
rtoes -12.0379
lfemur 22.025 -2.56766 -10.9559
ltibia 31.3123
lfoot -12.3082 -15.1449
ltoes -28.3414
